<svg width="1440" height="424" viewBox="0 0 1440 424" fill="none" xmlns="http://www.w3.org/2000/svg">
<path d="M1434.46 282.95C1422.13 274.212 1424.04 308.871 1415.42 314.801C1413.68 316.006 1422.02 330.066 1425.37 338.819C1432.79 358.303 1445.95 350.947 1455.75 365.103C1437.73 371.528 1419.75 378.057 1401.73 384.482C1423.46 392.725 1406.39 444.105 1418.47 465.928C1400.45 431.626 1374.09 474.773 1354.75 441.094C1346.48 426.632 1328.12 433.238 1314.46 437.311C1281.94 446.941 1249.8 430.188 1218.2 445.16C1187.44 459.68 1158.72 445.49 1128.43 454.353C1110.24 459.65 1089.64 461.436 1069.56 454.724C1046.61 447.009 1020.93 443.99 995.705 447.805C913.234 460.325 832.319 445.729 751.406 433.265C733.751 430.573 715.904 435.791 698.188 429.743C644.715 411.478 589.964 392.519 534.804 414.768C511.67 424.105 487.857 413.693 463.901 437.601C457.62 443.888 437.888 446.137 426.459 432.279C402.585 403.48 371.482 403.148 348.896 420.647C328.799 436.278 318.601 401.681 302.05 418.765C282.345 439.197 264.023 415.132 244.593 416.385C225.971 417.591 207.751 414.151 189.508 404.615C158.184 388.323 124.399 412.799 91.7035 416.527C88.7869 406.99 85.4401 398.237 80.3589 393.533C70.2333 392.863 69.1733 363.847 58.3958 365.165C42.5659 348.477 25.0727 346.202 6.94234 349.268C13.3811 331.311 4.83076 333.284 1.4046 328.589C0.973787 327.951 -0.782391 327.327 -0.620771 327.744C2.30792 333.524 3.88446 339.722 1.06873 348.676C-11.6317 334.734 -29.6602 359.135 -40.3141 329.992C-34.3067 328.562 -28.1042 327.042 -20.8388 325.187C-28.4537 309.448 -36.7793 300.163 -45.0878 319.926C-57.4362 349.274 -57.289 347.049 -58.6074 310.5C-59.9399 272.02 -80.7154 290.756 -92.8412 284.57C-99.0655 281.416 -112.818 298.382 -102.126 264.049C-98.3966 252.006 -108.325 239.771 -100.71 234.79C-92.5045 229.443 -83.2266 230.057 -74.9773 232.634C-68.9082 234.559 -46.7965 227.084 -38.8018 214.207C-31.1231 201.816 -22.7138 200.544 -14.8879 204.515C4.33702 214.217 23.8772 202.713 44.4632 199.708C41.5227 179.81 34.5191 179.854 28.0541 181.051C0.458467 186.335 -25.8128 170.174 -54.2137 181.194C-66.7391 186.053 -75.4817 158.763 -77.242 128.177C-79.4019 90.0483 -75.9628 55.9469 -56.2829 40.1862C-25.4111 15.4159 5.46803 29.8501 36.3735 23.8715C57.2619 19.8707 78.1455 20.9479 99.035 19.791C113.65 6.94528 128.226 -0.316954 142.474 12.4073C164.87 11.3502 187.247 11.3074 209.717 9.13797C242.137 6.00185 273.889 15.1109 305.873 12.8599C319.987 11.8642 334.522 18.1073 349.421 9.54609C363.634 1.34572 377.651 30.4068 392.469 2.33968C402.563 44.9539 422.164 16.0861 437.398 21.0552C457.355 27.5556 477.906 22.2122 497.587 27.8818C518.796 34.0587 540.448 22.7959 561.339 24.483C670.884 33.1536 782.032 7.60119 891.498 18.9072C935.802 23.4639 980.77 19.4315 1025.48 19.3428C1044.9 14.5344 1064.9 -7.40099 1083.52 14.2459C1098.2 14.8106 1112.82 15.4733 1127.49 16.038C1132.2 16.2485 1140.35 23.9985 1134.23 0.640056C1133.33 -2.8729 1142.06 -11.1315 1143.9 -6.84521C1159.63 29.9465 1182.63 2.62396 1201.41 11.1794C1215.02 -14.3271 1227.36 14.3184 1240.54 6.0495C1289.91 11.2461 1340.14 4.10891 1388.7 21.6424C1399.92 25.7368 1408.34 27.2078 1414.5 52.8035C1420.99 79.8429 1443.03 59.7699 1453.08 88.0605C1442.86 117.447 1430.99 85.9891 1420.39 98.7964C1415.97 104.191 1408.09 98.8962 1407.77 115.938C1407.51 129.835 1414.62 125.228 1418.55 126.706C1434.58 132.54 1444.19 161.716 1460.46 168.785C1469.24 172.616 1462.13 202.209 1458.11 205.091C1431.97 223.37 1450.94 242.704 1454.04 261.496C1448.51 273.723 1439.6 268.868 1434.46 282.95Z" fill="#3266E3"/>
</svg>
